<svg width="1000" height="152" viewBox="0 0 1000 152" fill="none" xmlns="http://www.w3.org/2000/svg">
<g clip-path="url(#clip0_21_59)">
<path d="M877.873 151.674C875.918 151.528 873.966 151.326 872.009 151.248C864.796 150.954 857.582 150.657 850.366 150.455C845.993 150.333 841.609 150.252 837.238 150.403C834.189 150.508 831.16 151.101 828.114 151.364C823.154 151.79 818.58 150.536 814.347 147.962C814.005 147.754 813.668 147.531 813.353 147.284C809.221 144.049 809.326 141.534 812.69 138.415C815.203 136.087 817.744 133.78 820.392 131.609C823.01 129.464 824.2 126.682 824.456 123.441C824.686 120.536 824.896 117.619 824.898 114.708C824.922 88.6627 824.909 62.6198 824.868 36.5748C824.863 33.8805 824.612 31.1863 824.454 28.4942C824.303 25.8853 823.016 23.8827 821.068 22.2368C818.07 19.7067 815.076 17.1701 812.049 14.6115C811.666 15.3644 811.239 16.4018 810.646 17.332C807.91 21.6349 805.122 25.905 802.366 30.197C800.83 32.587 799.258 34.9595 797.822 37.4086C797.227 38.4242 796.82 39.5929 796.542 40.7442C796.26 41.9173 796.562 42.9722 797.562 43.8739C800.782 46.7827 801.123 52.1274 798.361 55.1237C796.433 57.2138 793.222 57.3867 791.092 55.4914C789.186 53.793 788.424 51.543 788.124 49.0983C787.652 45.2572 788.516 41.554 789.344 37.8529C790.558 32.4163 791.834 26.9906 793.016 21.5474C793.292 20.2758 793.43 18.9429 793.401 17.6428C793.353 15.3929 791.974 13.9418 789.729 13.7908C787.658 13.6507 785.575 13.6945 783.495 13.6879C781.381 13.6813 779.263 13.6529 777.151 13.747C775.47 13.8236 774.743 14.478 774.537 16.1239C774.325 17.8201 774.202 19.5382 774.202 21.2454C774.183 54.8041 774.187 88.3629 774.196 121.922C774.196 123.014 774.303 124.106 774.364 125.198C774.5 127.544 775.763 129.304 777.398 130.825C779.773 133.036 782.246 135.141 784.581 137.391C785.75 138.518 786.842 139.781 787.722 141.142C789.249 143.506 788.882 145.478 786.671 147.174C783.178 149.858 779.182 151.088 774.796 150.694C772.082 150.449 769.407 149.766 766.693 149.545C764.837 149.394 762.944 149.68 761.068 149.803C757.586 150.028 754.141 150.878 750.617 150.376C748.306 150.048 746.146 149.313 744.257 147.932C741.186 145.686 740.928 142.618 743.642 139.939C745.638 137.967 747.759 136.122 749.819 134.215C750.782 133.325 751.731 132.418 752.69 131.521C754.581 129.755 755.476 127.56 755.516 124.992C755.527 124.336 755.551 123.679 755.551 123.023C755.551 88.8444 755.555 54.664 755.542 20.4859C755.542 19.2887 755.463 18.0762 755.268 16.8965C754.96 15.0405 753.973 14.0622 752.099 14.0184C748.129 13.9243 744.15 13.9024 740.18 14.0184C737.969 14.0841 736.936 15.2528 737.164 17.4283C737.35 19.2187 737.864 20.9871 738.365 22.7271C740.142 28.8794 742.075 34.988 743.752 41.1688C744.695 44.6465 744.907 48.2469 743.657 51.7312C743.211 52.9766 742.559 54.2132 741.74 55.2506C739.39 58.2272 735.362 57.8289 733.471 54.5305C731.585 51.2344 732.246 45.9991 735.069 43.3793C736.363 42.1799 736.472 40.9674 735.988 39.4572C735.347 37.4546 734.069 35.8985 732.67 34.3861C728.711 30.1029 724.675 25.8809 720.902 21.438C718.866 19.0414 717.056 16.3712 715.597 13.5872C713.557 9.69578 714.846 6.51566 718.816 4.57431C721.53 3.24798 724.45 2.86934 727.424 2.85402C731.874 2.82995 736.325 2.84746 740.775 2.84746C761.057 2.84746 781.337 2.83214 801.62 2.87372C803.5 2.8781 805.395 3.15387 807.251 3.48874C809.324 3.86081 811.064 4.90699 812.318 6.72358C817.267 3.32021 822.887 2.8387 828.63 2.84308C845.446 2.8584 862.261 2.83214 879.077 2.88248C882.508 2.89342 885.931 3.24798 889.107 4.7319C891.335 5.77151 892.191 6.74547 893.086 9.06983C893.445 8.39353 893.734 7.72817 894.128 7.13505C895.888 4.4802 898.597 3.515 901.565 3.0904C902.751 2.92187 903.962 2.85621 905.161 2.85402C924.312 2.84089 943.463 2.84089 962.613 2.84746C966.242 2.84746 969.823 3.21734 973.233 4.57212C978.538 6.67762 981.202 10.6916 981.6 16.2968C982.062 22.7577 979.604 28.2644 975.931 33.3487C971.241 39.8402 965.109 44.7275 958.411 48.9757C957.803 49.3609 957.197 49.7461 956.555 50.151C959.937 53.1145 963.6 55.4607 967.446 57.5596C969.354 58.6015 971.27 59.7221 972.931 61.1075C976.115 63.7623 977.512 67.4743 978.063 71.4489C979.254 80.0394 980.265 88.654 981.403 97.251C982.655 106.715 983.966 116.172 985.253 125.631C985.321 126.137 985.446 126.638 985.461 127.146C985.535 129.81 986.921 131.552 989.14 132.904C992.296 134.828 995.187 137.113 997.461 140.077C998.337 141.217 999.147 142.408 999.987 143.576V145.546C999.545 146.921 998.573 147.779 997.291 148.35C995.861 148.984 994.483 149.772 993.003 150.243C991.935 150.582 990.694 150.762 989.602 150.58C983.316 149.54 977.059 149.468 970.797 150.718C969.641 150.948 968.632 150.6 967.785 149.799C966.63 148.707 966.192 147.264 966.072 145.761C965.791 142.274 965.45 138.779 965.421 135.286C965.316 122.204 964.36 109.214 961.699 96.38C960.188 89.0983 958.521 81.8735 955.483 75.0296C952.754 68.8838 949.015 63.561 943.524 59.5667C940.429 57.3167 937.433 54.9289 934.275 52.7752C922.852 44.988 911.812 36.7061 901.493 27.494C898.58 24.8939 895.713 22.204 894.106 18.5336C893.454 17.0431 893.071 15.4366 892.565 13.8871C890.718 18.3082 887.641 21.8998 884.358 25.3316C879.449 30.4662 873.756 34.6772 868.164 39.0085C863.18 42.8693 858.227 46.7739 853.355 50.7704C852.176 51.7378 851.232 53.0773 850.44 54.3992C850.123 54.9289 850.256 56.0604 850.641 56.5726C850.944 56.9753 851.95 56.8899 852.648 56.9271C852.891 56.9403 853.147 56.6557 853.401 56.5178C856.465 54.8391 859.451 52.9766 862.929 52.2368C866.258 51.5277 869.624 51.2191 872.778 52.8146C880.731 56.8396 882.607 66.0276 879.786 72.6702C878.871 74.8238 877.234 76.3274 874.949 77.2948C874.977 76.7739 875.003 76.38 875.019 75.9882C875.124 73.3859 873.662 72.077 871.092 72.6198C869.068 73.0488 867.052 73.5719 865.084 74.2088C862.075 75.1849 859.138 76.3887 856.115 77.3233C852.773 78.3585 849.407 78.4461 846.29 76.5397C841.841 73.817 839.994 69.6017 839.816 64.5831C839.641 59.6301 841.589 55.3382 844.721 51.694C850.539 44.9223 856.571 38.3344 862.5 31.659C864.701 29.1793 867.013 26.7783 869.007 24.141C872.169 19.9562 870.223 14.7363 865.065 14.2241C860.013 13.7251 854.866 13.8761 849.781 14.1453C846.612 14.3139 845.001 16.2508 844.588 19.3981C844.283 21.7072 844.01 24.0359 843.964 26.3624C843.822 33.5456 843.804 40.731 843.699 47.9142C843.69 48.4482 843.467 49.0304 843.187 49.4966C842.309 50.963 841.252 52.3309 840.453 53.8367C838.26 57.9624 837.234 62.3419 838.039 67.0256C838.694 70.8317 840.539 74.0731 843.014 76.9687C843.552 77.599 843.741 78.2228 843.736 79.0304C843.706 83.7361 843.636 88.4439 843.743 93.1451C843.874 98.9735 844.097 104.802 844.408 110.626C844.599 114.222 845.715 117.496 849.033 119.44C850.747 120.442 852.581 121.379 854.483 121.9C862.867 124.189 871.397 124.316 879.961 123.132C885.192 122.41 888.041 119.195 889.053 114.154C889.12 113.817 889.23 113.487 889.35 113.049C891.272 114.48 892.832 116.093 894.106 117.969C898.164 123.951 898.683 130.538 897.148 137.365C895.833 143.22 892.616 147.754 887.026 150.28C885.529 150.956 883.843 151.219 882.244 151.67H877.866L877.873 151.674ZM930.801 37.2992C930.396 37.0628 930.177 36.9468 929.972 36.8111C924.588 33.3093 919.527 29.3937 914.684 25.1718C913.266 23.9352 912.462 22.7227 912.756 20.8251C912.859 20.1554 912.795 19.4244 912.642 18.759C912.434 17.8486 912.2 16.8987 911.74 16.0998C910.909 14.6487 908.722 14.1256 907.175 14.8545C905.931 15.4388 905.321 16.9818 905.951 18.6408C906.42 19.8753 907.028 21.1775 907.925 22.1077C913.907 28.3104 920.256 34.0884 927.63 38.6452C931.972 41.3285 936.367 43.8849 941.294 45.3929C947.323 47.2379 952.452 45.8678 956.59 41.1075C959.902 37.2992 962.371 32.9656 963.859 28.1484C964.43 26.3034 964.71 24.292 964.704 22.3572C964.69 17.9689 962.554 15.4323 958.284 14.4933C956.476 14.095 954.625 13.8148 952.78 13.6988C947.466 13.364 942.152 13.2152 936.873 14.2197C933.9 14.7866 931.961 16.4062 931.484 19.4419C931.145 21.5912 930.893 23.7733 930.832 25.9466C930.727 29.6564 930.803 33.3705 930.803 37.2948L930.801 37.2992Z" fill="white"/>
<path d="M0 148.391V3.28283H37.1525C44.1366 35.9333 51.1075 68.5203 58.0236 100.858C58.0433 100.755 58.1265 100.365 58.2009 99.9736C60.5428 87.8134 62.703 75.6159 65.2681 63.5039C69.4463 43.7687 73.8958 24.0904 78.2031 4.38154C78.3957 3.50169 78.7196 3.24343 79.6301 3.24562C91.1578 3.28064 102.683 3.26969 114.211 3.26969H115.362V148.343H91.9216C91.9632 111.101 91.6743 73.9241 92.7621 37.3669C84.5437 74.0007 76.1983 111.208 67.8551 148.409C61.4861 148.409 55.3228 148.369 49.1596 148.441C47.9317 148.457 47.5224 148.08 47.262 146.907C44.3576 133.786 41.3548 120.689 38.4504 107.568C33.5325 85.3467 28.6671 63.1121 23.782 40.8819C23.4931 39.5687 23.2327 38.2489 23.0663 37.45C23.2699 74.0795 23.4778 111.197 23.6857 148.391H0Z" fill="white"/>
<path d="M199.387 151.674C197.306 151.385 195.211 151.16 193.143 150.796C179.267 148.374 169.337 140.715 163.316 128.032C159.33 119.639 158.015 110.667 157.986 101.46C157.986 101.247 158.019 101.035 158.041 100.759H181.795C181.967 102.915 181.963 105.077 182.353 107.168C182.839 109.766 183.399 112.403 184.373 114.845C186.161 119.332 189.713 122.059 194.272 123.41C199.639 124.999 205.115 125.277 210.597 124.108C217.262 122.685 221.208 118.155 221.924 111.372C222.204 108.706 222.217 106.06 221.637 103.432C220.606 98.7588 217.437 96.0186 213.279 94.1495C208.369 91.9411 203.178 90.6345 197.995 89.295C192.85 87.9643 187.682 86.7168 182.869 84.3574C172.628 79.3388 165.671 71.4552 162.53 60.4813C159.173 48.75 159.078 36.9291 162.841 25.2569C165.774 16.1609 171.304 9.03894 179.886 4.52592C184.797 1.9433 190.094 0.702325 195.59 0.216442C196.054 0.174857 196.511 0.074179 196.973 0.00195312C199.599 0.00195312 202.226 0.00195312 204.852 0.00195312C206.789 0.271159 208.735 0.494402 210.663 0.820513C225.835 3.37687 235.66 12.1819 240.65 26.5855C242.926 33.1536 243.839 39.9626 244.161 46.8722C244.165 46.9707 244.115 47.0735 244.077 47.2311H220.948C220.613 45.0118 220.385 42.8034 219.921 40.6454C219.58 39.0565 219.039 37.4872 218.393 35.9923C215.944 30.3324 211.236 27.8965 205.421 27.1633C202.296 26.7693 199.166 26.7759 196.054 27.3668C189.722 28.5728 185.892 32.6393 185.452 39.0718C185.272 41.696 185.452 44.4055 185.922 46.9969C186.721 51.418 189.858 54.0641 193.655 56.0405C197.671 58.1306 202.053 59.109 206.395 60.1989C212.438 61.7135 218.47 63.2477 224.15 65.8938C231.714 69.4176 238.181 74.2042 242.32 81.6697C245.117 86.7168 246.601 92.1797 247.227 97.8746C248.148 106.242 247.866 114.563 245.577 122.712C241.232 138.185 230.917 147.266 215.342 150.556C213.068 151.035 210.727 151.182 208.415 151.492C208.172 151.525 207.936 151.615 207.697 151.678H199.38L199.387 151.674Z" fill="white"/>
<path d="M512.342 148.407H511.191C503.458 148.407 495.726 148.391 487.995 148.428C487.148 148.433 486.787 148.155 486.531 147.38C485.023 142.83 484.585 138.135 484.45 133.379C484.239 126.128 484.091 118.87 483.638 111.633C483.46 108.798 482.749 105.94 481.887 103.219C480.352 98.3758 476.702 95.9114 471.786 95.2264C470.528 95.0513 469.243 95.0031 467.971 94.9987C461.917 94.9769 455.863 94.9878 449.807 94.9878H448.54V148.315H423.859V3.33098C424.198 3.3069 424.48 3.2697 424.763 3.2697C441.394 3.27188 458.026 3.19528 474.655 3.31785C482.668 3.37694 490.177 5.3927 496.588 10.477C502.81 15.4124 506.68 21.9346 508.698 29.5161C511.67 40.6849 511.714 51.869 507.986 62.8998C505.629 69.8773 501.272 75.3489 494.911 79.1616C494.668 79.306 494.434 79.4658 494.196 79.6168C495.853 80.733 497.538 81.7223 499.059 82.9195C503.298 86.255 505.426 90.849 506.682 95.9639C508.278 102.453 508.628 109.07 508.847 115.706C509.072 122.556 509.249 129.409 509.556 136.257C509.74 140.387 510.508 144.423 512.34 148.407H512.342ZM448.556 69.0521C448.801 69.0872 448.908 69.1156 449.015 69.1156C456.273 69.1178 463.533 69.2054 470.788 69.0959C477.33 68.9974 481.906 65.5459 483.944 59.3476C485.706 53.992 485.701 48.5072 484.708 43.0289C484.007 39.1681 482.412 35.7276 479.09 33.3507C476.266 31.3327 473.034 30.7899 469.654 30.7921C463.016 30.7987 456.378 30.7921 449.742 30.7965C449.357 30.7965 448.971 30.8337 448.558 30.8556V69.0543L448.556 69.0521Z" fill="white"/>
<path d="M337.203 3.30273H416.575V34.0097H361.884V60.3196H411.589V89.2428H361.889V117.619H416.417V148.313H337.203V3.30273Z" fill="white"/>
<path d="M581.195 36.6994C579.805 36.9226 578.588 37.159 577.363 37.3034C576.159 37.4479 575.143 36.9489 574.312 36.1194C571.637 33.4536 570.731 30.1487 571.149 26.5046C571.32 25.0163 571.939 23.5718 572.412 22.1272C572.659 21.37 573.066 20.663 573.333 19.9123C574.303 17.1918 573.235 14.9112 570.409 14.2896C567.789 13.714 565.091 13.261 562.418 13.2106C555.75 13.0837 549.074 13.1296 542.405 13.2763C537.247 13.3901 534.852 17.9666 537.509 22.3877C539.254 25.2899 541.716 27.542 544.445 29.4308C550.556 33.6593 556.754 37.7652 562.95 41.869C571.644 47.6252 579.558 54.2196 585.682 62.7641C591.425 70.7768 594.727 79.7525 596.194 89.4505C597.306 96.8044 597.52 104.191 596.82 111.589C595.842 121.954 593.062 131.698 586.577 140.087C582.32 145.594 576.936 149.302 569.943 150.486C566.975 150.989 564.042 150.724 561.127 150.3C556.174 149.58 551.248 149.722 546.312 150.376C541.803 150.974 537.704 149.779 533.946 147.371C528.801 144.075 525.421 139.271 522.858 133.856C518.873 125.437 517.905 116.478 518.38 107.297C518.689 101.322 519.796 95.5087 522.25 90.0152C524.093 85.8874 526.531 82.1754 529.827 79.0193C537.264 71.9018 549.803 73.4558 555.297 79.0128C556.362 80.0918 557.258 81.3546 558.131 82.6022C559.656 84.7799 561.077 87.0277 562.591 89.2119C563.574 90.628 564.789 91.5713 566.634 90.6302C566.759 90.5667 566.916 90.5623 567.061 90.5405C567.131 90.5295 567.203 90.5448 567.422 90.5536C566.964 94.7164 566.737 98.923 564.679 102.692C563.176 105.445 559.731 106.645 556.481 105.531C554.99 105.021 553.605 104.154 552.248 103.324C550.727 102.394 549.339 101.247 547.811 100.333C544.366 98.2686 541.353 99.2557 539.665 102.911C536.853 109.008 539.234 117.161 544.817 120.298C547.715 121.926 550.937 122.353 554.207 122.46C558.518 122.6 562.734 122.114 566.673 120.234C571.521 117.918 574.69 114.042 576.244 108.993C579.212 99.3608 579.153 89.735 575.377 80.2997C573.235 74.9441 569.488 70.709 565.334 66.8132C559.221 61.0767 552.25 56.4805 545.408 51.7026C540.991 48.6166 536.509 45.5897 532.351 42.1776C526.824 37.6405 522.839 31.95 521.243 24.8237C520.495 21.4794 520.35 18.0913 520.978 14.7208C522.149 8.45247 526.137 4.70548 532.513 4.19771C537.304 3.81688 542.127 3.81251 546.936 3.67462C556.885 3.38791 566.835 3.10994 576.787 2.85825C579.862 2.78165 582.891 3.09244 585.835 4.09703C592.834 6.48267 593.292 13.6505 590.884 18.0629C589.667 20.2931 587.772 21.8865 585.883 23.5017C584.222 24.92 582.532 26.3207 581.015 27.8878C579.313 29.6497 578.299 31.5407 580.151 34.5961C580.523 35.2111 580.792 35.8896 581.186 36.7015L581.195 36.6994Z" fill="white"/>
<path d="M698.676 36.693C697.492 36.8856 696.478 37.0147 695.482 37.2205C693.6 37.6101 692.197 36.8243 691.101 35.4105C688.094 31.5321 687.829 27.2883 689.545 22.8213C689.95 21.7685 690.488 20.7683 690.86 19.7046C691.711 17.273 690.768 15.1785 688.288 14.4299C686.489 13.8871 684.592 13.4625 682.725 13.4013C677.262 13.224 671.795 13.2502 666.327 13.213C664.357 13.1999 662.388 13.213 660.42 13.2502C659.733 13.2634 659.024 13.2984 658.363 13.4713C654.408 14.5022 652.81 17.9099 654.565 21.6131C655.765 24.141 657.658 26.1655 659.869 27.7808C664.425 31.1097 669.083 34.3008 673.753 37.47C679.722 41.519 685.841 45.3382 691.359 50.0351C703.583 60.44 711.352 73.3487 713.64 89.3347C715.345 101.25 715.229 113.115 711.768 124.763C709.641 131.922 706.242 138.389 700.829 143.655C696.038 148.315 690.273 150.784 683.594 150.744C680.473 150.727 677.358 150.031 674.233 149.932C671.151 149.836 668.019 149.842 664.975 150.274C658.407 151.204 652.86 149.234 648.142 144.815C642.077 139.138 638.645 131.957 637.039 123.922C634.885 113.152 635.104 102.454 638.912 92.0268C640.836 86.7565 643.751 82.0903 648.054 78.3695C655.325 72.0771 667.115 73.6311 672.37 78.6562C673.62 79.8512 674.657 81.2914 675.671 82.7075C677.218 84.8677 678.641 87.1154 680.149 89.3041C681.127 90.7223 682.35 91.519 684.125 90.626C684.307 90.5341 684.541 90.5516 685.102 90.4641C684.526 93.607 683.979 96.5989 683.43 99.5886C683.403 99.7309 683.342 99.8666 683.305 100.007C681.659 106.441 675.78 107.037 671.731 104.612C669.577 103.322 667.586 101.769 665.452 100.442C661.81 98.1769 658.639 99.2494 656.997 103.217C654.666 108.853 656.588 116.437 661.19 119.621C663.429 121.173 665.981 121.885 668.654 122.213C673.121 122.76 677.546 122.576 681.845 121.16C687.855 119.177 691.825 115.003 693.692 109.068C696.704 99.4923 696.629 89.8885 692.928 80.4685C690.958 75.4564 687.555 71.4118 683.732 67.6976C678.216 62.3398 671.928 57.9821 665.651 53.5961C660.219 49.8009 654.688 46.1043 649.567 41.9173C643.915 37.2971 639.958 31.3811 638.558 24.0294C637.951 20.8471 637.879 17.6451 638.496 14.4606C639.663 8.42643 643.745 4.66849 650.026 4.18699C654.782 3.82148 659.569 3.80835 664.342 3.67046C674.292 3.38375 684.244 3.10798 694.196 2.8519C697.273 2.77311 700.322 3.02043 703.246 4.07537C708.881 6.10863 711.226 11.6131 708.816 17.1089C707.982 19.0108 706.721 20.5954 705.159 21.9546C702.987 23.8456 700.781 25.6994 698.691 27.6757C697.949 28.3783 697.404 29.3479 696.949 30.2802C696.448 31.3045 696.555 32.4054 697.082 33.445C697.605 34.4781 698.111 35.5221 698.687 36.6864L698.676 36.693Z" fill="white"/>
<path d="M275.505 34.0405H243.638V3.33789H332.222V34.047H300.313V148.339H275.502V34.0405H275.505Z" fill="white"/>
<path d="M617.384 42.6635C620.486 42.6635 623.587 42.6022 626.684 42.6919C628.05 42.7313 629.464 42.9086 630.755 43.3267C633.5 44.2174 634.412 46.6403 632.858 49.0478C631.76 50.7484 630.438 52.3396 629.017 53.7863C627.459 55.3752 626.802 57.089 626.809 59.3433C626.87 83.8169 626.853 108.293 626.826 132.769C626.826 133.668 627.131 134.204 627.785 134.784C629.908 136.664 632.088 138.512 633.99 140.606C636.308 143.158 636.126 144.423 633.657 146.82C631.595 148.822 629.256 150.333 626.34 150.65C625.277 150.766 624.147 150.7 623.101 150.47C619.262 149.63 615.45 149.582 611.624 150.503C608.533 151.247 605.763 150.381 603.272 148.597C602.099 147.757 601.037 146.723 600.07 145.647C598.866 144.309 598.711 143.296 599.847 141.917C601.479 139.932 603.178 137.89 605.226 136.389C607.472 134.745 608.129 132.939 608.115 130.212C607.999 106.686 608.01 83.1603 608.102 59.6322C608.113 57.0167 607.516 54.9638 605.526 53.2807C604.723 52.6022 603.981 51.823 603.338 50.9914C602.657 50.1071 601.957 49.1726 601.569 48.1439C600.797 46.0997 601.665 44.1824 603.705 43.4317C604.881 43.0005 606.179 42.7445 607.428 42.7073C610.744 42.6088 614.066 42.6744 617.384 42.6744V42.6613V42.6635Z" fill="white"/>
<path d="M616.286 28.4375C613.366 28.4441 610.532 28.1004 608.168 26.1372C607.89 25.9052 607.616 25.6513 607.4 25.3646C604.955 22.1188 604.824 18.5119 606.128 14.8809C607.33 11.5388 610.252 10.3351 613.511 9.88201C616.019 9.53401 618.534 9.58216 620.996 10.276C624.235 11.1886 626.281 13.2547 626.91 16.599C627.325 18.8161 627.33 21.0508 626.511 23.1781C625.045 26.9864 621.797 28.0676 618.14 28.4287C617.527 28.49 616.901 28.4375 616.281 28.4375H616.286Z" fill="white"/>
<path d="M126.995 3.3335H151.576V148.35H126.995V3.3335Z" fill="white"/>
<path d="M912.78 39.8074C914.102 40.882 915.178 41.8538 916.349 42.692C920.759 45.8503 925.181 48.9976 929.65 52.0683C930.499 52.6504 930.827 53.1976 930.825 54.235C930.79 76.0472 930.786 97.8616 930.816 119.674C930.821 122.147 931.048 124.622 931.197 127.093C931.318 129.105 932.313 130.705 933.749 132.02C935.896 133.988 938.172 135.82 940.265 137.842C941.379 138.919 942.322 140.212 943.171 141.521C944.625 143.762 944.362 145.671 942.368 147.472C939.737 149.849 936.549 150.808 933.073 150.481C929.521 150.149 926.004 149.398 922.449 149.149C920.602 149.019 918.709 149.586 916.833 149.818C913.187 150.267 909.547 151.005 905.866 150.133C903.719 149.626 901.692 148.857 899.996 147.378C897.796 145.458 897.326 143.213 899.092 140.919C900.427 139.184 902.16 137.737 903.802 136.257C905.64 134.601 907.592 133.068 909.468 131.449C911.587 129.621 912.456 127.194 912.65 124.485C912.734 123.322 912.775 122.154 912.775 120.987C912.782 94.432 912.78 67.877 912.78 41.3219V39.8052V39.8074Z" fill="white"/>
</g>
<defs>
<clipPath id="clip0_21_59">
<rect width="1000" height="151.674" fill="white"/>
</clipPath>
</defs>
</svg>
